# xmcd
#
# Track frame offsets:
#	150
#	15002
#	33017
#	50320
#	66785
#	87448
#	104599
#	125105
#	142339
#	162695
#
# Disc length: 2418 seconds
#
# Revision: 1
# Processed by: cddbd v1.5.2PL0 Copyright (c) Steve Scherf et al.
# Submitted via: audiograbber 1.83.01
#
DISCID=8809700a
DTITLE=Nick Bold Band - Full Circle
DYEAR=2006
DGENRE=Blues Rock
TTITLE0=Shiny Automobile
TTITLE1=Rain On
TTITLE2=Know Not Why
TTITLE3=Ain't Going Back There No More
TTITLE4=We Ride
TTITLE5=The Story Of My Heart
TTITLE6=Shake It Right Down
TTITLE7=I Only Wanna dance
TTITLE8=Miss Femme Fatale
TTITLE9=Lovetrain
EXTD=
EXTT0=
EXTT1=
EXTT2=
EXTT3=
EXTT4=
EXTT5=
EXTT6=
EXTT7=
EXTT8=
EXTT9=
PLAYORDER=
